<svg width="48" height="48" viewBox="0 0 48 48" fill="none" xmlns="http://www.w3.org/2000/svg">
<path d="M34 23.0769C34.3077 23.5385 34.6154 24 34.7692 24.7692H29.8462C29.8462 24.6154 29.8462 24.3077 30 24C30.1538 23.6923 30.1538 23.5385 30.4615 23.2308C30.6154 22.9231 30.9231 22.7692 31.2308 22.6154C31.5385 22.4615 32 22.3077 32.4615 22.3077C33.0769 22.4615 33.6923 22.6154 34 23.0769ZM19.8462 22C20.1538 21.6923 20.4615 21.2308 20.4615 20.6154C20.4615 20.3077 20.4615 20 20.3077 19.6923C20.1538 19.5385 20 19.2308 19.8462 19.2308C19.6923 19.0769 19.3846 19.0769 19.0769 18.9231H15.0769V22.4615H18.4615C18.9231 22.4615 19.3846 22.3077 19.8462 22ZM18.6154 24.6154H15.0769V28.7692H18.6154C18.9231 28.7692 19.2308 28.7692 19.5385 28.6154C19.8462 28.6154 20.1538 28.4615 20.3077 28.3077C20.4615 28.1538 20.7692 28 20.9231 27.6923C21.0769 27.3846 21.0769 27.0769 21.0769 26.7692C21.0769 26 20.9231 25.3846 20.4615 25.0769C20 24.7692 19.3846 24.6154 18.6154 24.6154ZM44 11.5385V36.4615C44 40.6154 40.6154 44 36.4615 44H11.5385C7.38462 44 4 40.6154 4 36.4615V11.5385C4 7.38462 7.38462 4 11.5385 4H36.4615C40.6154 4 44 7.38462 44 11.5385ZM29.2308 18.7692H35.3846V17.2308H29.2308V18.7692ZM24.3077 27.0769C24.3077 26.1538 24.1538 25.3846 23.6923 24.6154C23.2308 24 22.6154 23.5385 21.6923 23.2308C22.3077 22.9231 22.9231 22.4615 23.2308 22C23.5385 21.5385 23.6923 20.9231 23.6923 20.1538C23.6923 19 23.5385 18.9231 23.3846 18.3077C23.0769 17.8462 22.7692 17.3846 22.4615 17.2308C22 16.9231 21.5385 16.7692 20.9231 16.6154C20.1538 16.3077 19.5385 16.3077 18.7692 16.3077H11.6923V31.3846H19.0769C19.6923 31.3846 20.4615 31.2308 21.0769 31.0769C21.6923 30.9231 22.3077 30.6154 22.7692 30.3077C23.2308 30 23.6923 29.5385 24 28.9231C24.1538 28.4615 24.3077 27.8462 24.3077 27.0769ZM29.8462 26.6154H37.6923C37.6923 25.6923 37.6923 24.9231 37.5385 24.1538C37.3846 23.3846 37.0769 22.6154 36.6154 22.1538C36.1538 21.5385 35.5385 21.0769 34.9231 20.7692C34.1538 20.4615 33.3846 20.1538 32.4615 20.1538C31.6923 20.1538 30.9231 20.3077 30.1538 20.6154C29.5385 20.9231 28.9231 21.3846 28.3077 21.8462C27.8462 22.3077 27.3846 22.9231 27.2308 23.6923C26.9231 24.4615 26.7692 25.2308 26.7692 26C26.7692 27.1538 26.9231 27.6923 27.2308 28.3077C27.5385 29.0769 27.8462 29.6923 28.3077 30.1538C28.7692 30.6154 29.3846 31.0769 30 31.3846C30.7692 31.6923 31.5385 31.8462 32.3077 31.8462C33.5385 31.8462 34.6154 31.5385 35.5385 30.9231C36.4615 30.3077 37.0769 29.3846 37.5385 28.1538H34.9231C34.7692 28.4615 34.6154 28.7692 34.1538 29.0769C33.6923 29.3846 33.2308 29.5385 32.6154 29.5385C31.8462 29.5385 31.0769 29.3846 30.6154 28.9231C30.1538 28.3077 29.8462 27.5385 29.8462 26.6154Z" fill="black"/>
</svg>
