<svg width="48" height="48" viewBox="0 0 48 48" fill="none" xmlns="http://www.w3.org/2000/svg">
<path d="M24 5C21.3736 5 18.7728 5.50365 16.3463 6.4822C13.9198 7.46074 11.715 8.89502 9.85786 10.7031C6.10714 14.3548 4 19.3075 4 24.4717C4 33.0782 9.74 40.3801 17.68 42.9698C18.68 43.1256 19 42.522 19 41.9963V38.7055C13.46 39.8738 12.28 36.0963 12.28 36.0963C11.36 33.8376 10.06 33.234 10.06 33.234C8.24 32.0267 10.2 32.0657 10.2 32.0657C12.2 32.202 13.26 34.0713 13.26 34.0713C15 37.031 17.94 36.1547 19.08 35.6874C19.26 34.4218 19.78 33.565 20.34 33.0782C15.9 32.5914 11.24 30.9168 11.24 23.4981C11.24 21.3368 12 19.6038 13.3 18.2213C13.1 17.7345 12.4 15.7094 13.5 13.0808C13.5 13.0808 15.18 12.555 19 15.0669C20.58 14.6385 22.3 14.4243 24 14.4243C25.7 14.4243 27.42 14.6385 29 15.0669C32.82 12.555 34.5 13.0808 34.5 13.0808C35.6 15.7094 34.9 17.7345 34.7 18.2213C36 19.6038 36.76 21.3368 36.76 23.4981C36.76 30.9363 32.08 32.5719 27.62 33.0587C28.34 33.6624 29 34.8501 29 36.661V41.9963C29 42.522 29.32 43.1451 30.34 42.9698C38.28 40.3606 44 33.0782 44 24.4717C44 21.9147 43.4827 19.3826 42.4776 17.0202C41.4725 14.6578 39.9993 12.5112 38.1421 10.7031C36.285 8.89502 34.0802 7.46074 31.6537 6.4822C29.2272 5.50365 26.6264 5 24 5Z" fill="black"/>
</svg>
