<svg width="48" height="48" viewBox="0 0 48 48" fill="none" xmlns="http://www.w3.org/2000/svg">
<path d="M8 25H14C15.0609 25 16.0783 25.4214 16.8284 26.1716C17.5786 26.9217 18 27.9391 18 29V39C18 40.0609 17.5786 41.0783 16.8284 41.8284C16.0783 42.5786 15.0609 43 14 43H8C6.93913 43 5.92172 42.5786 5.17157 41.8284C4.42143 41.0783 4 40.0609 4 39V25C4 13.954 12.954 5 24 5C35.046 5 44 13.954 44 25V39C44 40.0609 43.5786 41.0783 42.8284 41.8284C42.0783 42.5786 41.0609 43 40 43H34C32.9391 43 31.9217 42.5786 31.1716 41.8284C30.4214 41.0783 30 40.0609 30 39V29C30 27.9391 30.4214 26.9217 31.1716 26.1716C31.9217 25.4214 32.9391 25 34 25H40C40 20.7565 38.3143 16.6869 35.3137 13.6863C32.3131 10.6857 28.2435 9 24 9C19.7565 9 15.6869 10.6857 12.6863 13.6863C9.68571 16.6869 8 20.7565 8 25Z" fill="black"/>
</svg>
