<svg width="48" height="48" viewBox="0 0 48 48" fill="none" xmlns="http://www.w3.org/2000/svg">
<path d="M26.056 4C28.306 4.006 29.448 4.018 30.434 4.046L30.822 4.06C31.27 4.076 31.712 4.096 32.246 4.12C34.374 4.22 35.826 4.556 37.1 5.05C38.42 5.558 39.532 6.246 40.644 7.356C41.6614 8.35546 42.4484 9.56494 42.95 10.9C43.444 12.174 43.78 13.626 43.88 15.756C43.904 16.288 43.924 16.73 43.94 17.18L43.952 17.568C43.982 18.552 43.994 19.694 43.998 21.944L44 23.436V26.056C44.0049 27.5148 43.9895 28.9736 43.954 30.432L43.942 30.82C43.926 31.27 43.906 31.712 43.882 32.244C43.782 34.374 43.442 35.824 42.95 37.1C42.4484 38.4351 41.6614 39.6445 40.644 40.644C39.6445 41.6614 38.435 42.4484 37.1 42.95C35.826 43.444 34.374 43.78 32.246 43.88L30.822 43.94L30.434 43.952C29.448 43.98 28.306 43.994 26.056 43.998L24.564 44H21.946C20.4865 44.0051 19.027 43.9898 17.568 43.954L17.18 43.942C16.7052 43.924 16.2305 43.9034 15.756 43.88C13.628 43.78 12.176 43.444 10.9 42.95C9.56565 42.4481 8.35688 41.6611 7.35799 40.644C6.33988 39.6447 5.55221 38.4352 5.04999 37.1C4.55599 35.826 4.21999 34.374 4.11999 32.244L4.05999 30.82L4.04999 30.432C4.01313 28.9736 3.99646 27.5148 3.99999 26.056V21.944C3.99446 20.4852 4.00913 19.0264 4.04399 17.568L4.05799 17.18C4.07399 16.73 4.09399 16.288 4.11799 15.756C4.21799 13.626 4.55399 12.176 5.04799 10.9C5.55138 9.5644 6.34044 8.35487 7.35999 7.356C8.3583 6.3391 9.56637 5.55215 10.9 5.05C12.176 4.556 13.626 4.22 15.756 4.12C16.288 4.096 16.732 4.076 17.18 4.06L17.568 4.048C19.0264 4.01247 20.4852 3.99713 21.944 4.002L26.056 4ZM24 14C21.3478 14 18.8043 15.0536 16.9289 16.9289C15.0536 18.8043 14 21.3478 14 24C14 26.6522 15.0536 29.1957 16.9289 31.0711C18.8043 32.9464 21.3478 34 24 34C26.6522 34 29.1957 32.9464 31.0711 31.0711C32.9464 29.1957 34 26.6522 34 24C34 21.3478 32.9464 18.8043 31.0711 16.9289C29.1957 15.0536 26.6522 14 24 14ZM24 18C24.7879 17.9999 25.5682 18.1549 26.2962 18.4563C27.0242 18.7577 27.6857 19.1996 28.2429 19.7567C28.8002 20.3137 29.2422 20.9751 29.5439 21.703C29.8455 22.4309 30.0009 23.2111 30.001 23.999C30.0011 24.7869 29.8461 25.5672 29.5447 26.2952C29.2432 27.0232 28.8014 27.6847 28.2443 28.2419C27.6873 28.7992 27.0259 29.2412 26.298 29.5429C25.5701 29.8445 24.7899 29.9999 24.002 30C22.4107 30 20.8846 29.3679 19.7594 28.2426C18.6341 27.1174 18.002 25.5913 18.002 24C18.002 22.4087 18.6341 20.8826 19.7594 19.7574C20.8846 18.6321 22.4107 18 24.002 18M34.502 11C33.839 11 33.2031 11.2634 32.7342 11.7322C32.2654 12.2011 32.002 12.837 32.002 13.5C32.002 14.163 32.2654 14.7989 32.7342 15.2678C33.2031 15.7366 33.839 16 34.502 16C35.165 16 35.8009 15.7366 36.2698 15.2678C36.7386 14.7989 37.002 14.163 37.002 13.5C37.002 12.837 36.7386 12.2011 36.2698 11.7322C35.8009 11.2634 35.165 11 34.502 11Z" fill="black"/>
</svg>
