<svg width="48" height="48" viewBox="0 0 48 48" fill="none" xmlns="http://www.w3.org/2000/svg">
<path d="M39.5556 4C40.7343 4 41.8648 4.46825 42.6983 5.30175C43.5317 6.13524 44 7.2657 44 8.44444V39.5556C44 40.7343 43.5317 41.8648 42.6983 42.6983C41.8648 43.5317 40.7343 44 39.5556 44H8.44444C7.2657 44 6.13524 43.5317 5.30175 42.6983C4.46825 41.8648 4 40.7343 4 39.5556V8.44444C4 7.2657 4.46825 6.13524 5.30175 5.30175C6.13524 4.46825 7.2657 4 8.44444 4H39.5556ZM38.4444 38.4444V26.6667C38.4444 24.7453 37.6812 22.9027 36.3226 21.5441C34.964 20.1855 33.1213 19.4222 31.2 19.4222C29.3111 19.4222 27.1111 20.5778 26.0444 22.3111V19.8444H19.8444V38.4444H26.0444V27.4889C26.0444 25.7778 27.4222 24.3778 29.1333 24.3778C29.9585 24.3778 30.7498 24.7056 31.3332 25.289C31.9167 25.8724 32.2444 26.6638 32.2444 27.4889V38.4444H38.4444ZM12.6222 16.3556C13.6124 16.3556 14.562 15.9622 15.2621 15.2621C15.9622 14.562 16.3556 13.6124 16.3556 12.6222C16.3556 10.5556 14.6889 8.86667 12.6222 8.86667C11.6262 8.86667 10.6709 9.26234 9.96664 9.96664C9.26234 10.6709 8.86667 11.6262 8.86667 12.6222C8.86667 14.6889 10.5556 16.3556 12.6222 16.3556ZM15.7111 38.4444V19.8444H9.55556V38.4444H15.7111Z" fill="black"/>
</svg>
