<svg width="48" height="48" viewBox="0 0 48 48" fill="none" xmlns="http://www.w3.org/2000/svg">
<path d="M34.5612 10.2667C32.9922 8.53228 32.1273 6.30533 32.1275 4H25.0332V31.5556C24.9796 33.0471 24.3295 34.4602 23.2201 35.4967C22.1107 36.5332 20.6287 37.112 19.0867 37.1111C15.8265 37.1111 13.1173 34.5333 13.1173 31.3333C13.1173 27.5111 16.9286 24.6444 20.8546 25.8222V18.8C12.9337 17.7778 6 23.7333 6 31.3333C6 38.7333 12.3367 44 19.0638 44C26.273 44 32.1275 38.3333 32.1275 31.3333V17.3556C35.0043 19.3552 38.4582 20.4281 42 20.4222V13.5556C42 13.5556 37.6837 13.7556 34.5612 10.2667Z" fill="black"/>
</svg>
