<svg width="48" height="48" viewBox="0 0 48 48" fill="none" xmlns="http://www.w3.org/2000/svg">
<path d="M39.5556 6.93665C40.7343 6.93665 41.8648 7.38608 42.6983 8.18608C43.5317 8.98608 44 10.0711 44 11.2025V36.7975C44 37.9289 43.5317 39.0139 42.6983 39.8139C41.8648 40.6139 40.7343 41.0634 39.5556 41.0634H8.44444C7.2657 41.0634 6.13524 40.6139 5.30175 39.8139C4.46825 39.0139 4 37.9289 4 36.7975V11.2025C4 10.0711 4.46825 8.98608 5.30175 8.18608C6.13524 7.38608 7.2657 6.93665 8.44444 6.93665H39.5556ZM39.5556 19.7342H8.44444V34.6646C8.44452 35.187 8.64435 35.6913 9.00603 36.0817C9.36772 36.4721 9.86611 36.7215 10.4067 36.7826L10.6667 36.7975H37.3333C37.8776 36.7975 38.403 36.6057 38.8097 36.2585C39.2165 35.9114 39.4763 35.433 39.54 34.9142L39.5556 34.6646V19.7342ZM10.6667 11.2025C10.0773 11.2025 9.51207 11.4272 9.09532 11.8272C8.67857 12.2272 8.44444 12.7697 8.44444 13.3354C8.44444 13.9011 8.67857 14.4436 9.09532 14.8436C9.51207 15.2436 10.0773 15.4683 10.6667 15.4683C11.256 15.4683 11.8213 15.2436 12.238 14.8436C12.6548 14.4436 12.8889 13.9011 12.8889 13.3354C12.8889 12.7697 12.6548 12.2272 12.238 11.8272C11.8213 11.4272 11.256 11.2025 10.6667 11.2025ZM17.3333 11.2025C16.744 11.2025 16.1787 11.4272 15.762 11.8272C15.3452 12.2272 15.1111 12.7697 15.1111 13.3354C15.1111 13.9011 15.3452 14.4436 15.762 14.8436C16.1787 15.2436 16.744 15.4683 17.3333 15.4683C17.9227 15.4683 18.4879 15.2436 18.9047 14.8436C19.3214 14.4436 19.5556 13.9011 19.5556 13.3354C19.5556 12.7697 19.3214 12.2272 18.9047 11.8272C18.4879 11.4272 17.9227 11.2025 17.3333 11.2025ZM24 11.2025C23.4106 11.2025 22.8454 11.4272 22.4287 11.8272C22.0119 12.2272 21.7778 12.7697 21.7778 13.3354C21.7778 13.9011 22.0119 14.4436 22.4287 14.8436C22.8454 15.2436 23.4106 15.4683 24 15.4683C24.5894 15.4683 25.1546 15.2436 25.5713 14.8436C25.9881 14.4436 26.2222 13.9011 26.2222 13.3354C26.2222 12.7697 25.9881 12.2272 25.5713 11.8272C25.1546 11.4272 24.5894 11.2025 24 11.2025Z" fill="black"/>
</svg>
