<svg width="48" height="48" viewBox="0 0 48 48" fill="none" xmlns="http://www.w3.org/2000/svg">
<path fill-rule="evenodd" clip-rule="evenodd" d="M24 8C25.71 8 27.464 8.044 29.164 8.116L31.172 8.212L33.094 8.326L34.894 8.448L36.538 8.576C38.3224 8.71178 40.0016 9.47287 41.2799 10.7252C42.5582 11.9775 43.3536 13.6408 43.526 15.422L43.606 16.272L43.756 18.092C43.896 19.978 44 22.034 44 24C44 25.966 43.896 28.022 43.756 29.908L43.606 31.728L43.526 32.578C43.3536 34.3595 42.5579 36.023 41.2792 37.2754C40.0004 38.5278 38.3207 39.2887 36.536 39.424L34.896 39.55L33.096 39.674L31.172 39.788L29.164 39.884C27.4437 39.9585 25.722 39.9972 24 40C22.278 39.9972 20.5563 39.9585 18.836 39.884L16.828 39.788L14.906 39.674L13.106 39.55L11.462 39.424C9.67763 39.2882 7.9984 38.5271 6.72009 37.2748C5.44178 36.0225 4.64638 34.3592 4.474 32.578L4.394 31.728L4.244 29.908C4.09167 27.9422 4.01028 25.9716 4 24C4 22.034 4.104 19.978 4.244 18.092L4.394 16.272L4.474 15.422C4.64631 13.6411 5.44142 11.9781 6.71933 10.7258C7.99723 9.47352 9.67598 8.71223 11.46 8.576L13.102 8.448L14.902 8.326L16.826 8.212L18.834 8.116C20.555 8.04145 22.2774 8.00278 24 8ZM20 19.15V28.85C20 29.774 21 30.35 21.8 29.89L30.2 25.04C30.3828 24.9348 30.5346 24.7832 30.6402 24.6007C30.7458 24.4181 30.8013 24.2109 30.8013 24C30.8013 23.7891 30.7458 23.5819 30.6402 23.3993C30.5346 23.2168 30.3828 23.0652 30.2 22.96L21.8 18.112C21.6175 18.0066 21.4105 17.9512 21.1998 17.9512C20.9891 17.9513 20.7821 18.0068 20.5997 18.1122C20.4172 18.2176 20.2657 18.3692 20.1605 18.5517C20.0552 18.7343 19.9999 18.9413 20 19.152V19.15Z" fill="black"/>
</svg>
