<svg width="32" height="32" viewBox="0 0 32 32" fill="none" xmlns="http://www.w3.org/2000/svg">
<path d="M22.5906 5.37563C21.7638 5.32608 21.0534 5.95608 21.0037 6.78285L21.0027 6.78578V6.79652C21.0024 6.80237 21.0012 6.80974 21.0008 6.81801C21 6.83448 20.9996 6.8558 20.9988 6.88148C20.9972 6.93324 20.9958 7.00377 20.9959 7.08949C20.9961 7.26065 21.0028 7.49752 21.0262 7.77895C21.0662 8.26191 21.1592 8.90756 21.3738 9.5934C21.3352 9.66778 21.2771 9.76952 21.1912 9.89711C20.8974 10.3331 20.4353 10.866 19.91 11.4108C19.75 11.5767 19.5879 11.7393 19.4285 11.8961C19.2359 11.5214 19.0152 11.1596 18.7654 10.817C18.0102 9.7812 17.0214 8.938 15.8797 8.35512C14.7377 7.7722 13.4743 7.4656 12.1922 7.46156L11.7127 7.47426C10.5958 7.53647 9.50131 7.8278 8.49882 8.33168C7.75884 8.70381 7.46081 9.60624 7.83281 10.3463C8.2051 11.0859 9.10656 11.3833 9.84648 11.0114C10.5711 10.6472 11.3715 10.4591 12.1824 10.4616C12.9936 10.4641 13.7939 10.6572 14.5164 11.026C15.2388 11.3948 15.8638 11.9292 16.3416 12.5846C16.8194 13.24 17.1363 13.9989 17.2664 14.7995C17.2686 14.8132 17.2706 14.8278 17.2732 14.8414L18.6922 22.2487C18.9464 23.5771 18.6617 24.9529 17.9021 26.0719C17.1426 27.1909 15.9697 27.9632 14.6414 28.2174C13.8278 28.3731 13.2943 29.1587 13.45 29.9723C13.606 30.7855 14.3915 31.3193 15.2049 31.1637C17.3146 30.76 19.1772 29.5337 20.3836 27.7565C21.59 25.9791 22.0422 23.7951 21.6385 21.6852L20.782 17.2116L28.0428 20.7311C28.7881 21.0919 29.6854 20.7799 30.0467 20.0348C30.4077 19.2895 30.0965 18.3923 29.3514 18.0309L21.3904 14.1725C21.6117 13.9574 21.8431 13.7293 22.0711 13.4928C22.6381 12.9048 23.2403 12.2248 23.6795 11.5729C23.8972 11.2497 24.1141 10.876 24.2547 10.483C24.3842 10.1209 24.5302 9.51864 24.2977 8.87856L24.2371 8.70082C24.107 8.28621 24.0435 7.86971 24.0154 7.53188C23.9998 7.34303 23.9961 7.18795 23.9959 7.08559C23.9958 7.03474 23.9962 6.99659 23.9969 6.97523L23.9978 6.96254C24.0474 6.13577 23.4173 5.42543 22.5906 5.37563Z" fill="#2E6BEF"/>
<path d="M4.77617 3.79359C4.62033 2.98018 3.8338 2.44761 3.02031 2.60316C2.2069 2.75906 1.67422 3.54454 1.82988 4.35805L3.24687 11.7653C3.45659 13.0156 3.95391 14.2004 4.70097 15.2252C5.45633 16.2614 6.44564 17.1051 7.58769 17.6881C8.7295 18.2709 9.99228 18.5766 11.2742 18.5807C12.1261 18.5834 13.0569 18.2494 13.7381 17.9645C14.4696 17.6586 15.1842 17.289 15.6297 17.0651C16.3695 16.693 16.6683 15.7914 16.2967 15.0514C15.9247 14.3113 15.0222 14.0125 14.282 14.3844C13.7925 14.6305 13.1917 14.9404 12.5809 15.1959C11.9194 15.4726 11.4788 15.5823 11.284 15.5817C10.4729 15.5791 9.67336 15.3849 8.95097 15.0163C8.22884 14.6475 7.60351 14.1138 7.12578 13.4586C6.64789 12.8031 6.33009 12.0435 6.2 11.2428L6.19316 11.2018L4.77617 3.79359Z" fill="#2E6BEF"/>
<path d="M21.868 0.576172C20.7639 0.576416 19.8682 1.47198 19.868 2.57617C19.8683 3.68026 20.764 4.57593 21.868 4.57617C22.9722 4.57605 23.8678 3.68033 23.868 2.57617C23.8679 1.47191 22.9723 0.576294 21.868 0.576172Z" fill="#22B98E"/>
</svg>
